<?xml version="1.0" encoding="UTF-8" standalone="no"?>
<!-- Created with Inkscape (http://www.inkscape.org/) -->

<svg
   width="61.980751mm"
   height="67.510521mm"
   viewBox="0 0 61.980751 67.510521"
   version="1.1"
   id="svg1"
   xml:space="preserve"
   xmlns="http://www.w3.org/2000/svg"
   xmlns:svg="http://www.w3.org/2000/svg"><defs
     id="defs1" /><g
     id="layer1"
     transform="translate(-68.036184,-75.509466)"><path
       id="rect1"
       style="opacity:1;fill:#000000;stroke-width:0;stroke-dasharray:none"
       d="m 97.374457,75.509466 v 3.71244 h -3.78117 v 3.02927 h 3.78117 v 3.2892 l -7.575769,8.75916 h 2.867009 l 6.29161,-7.27346 6.286953,7.26881 h 2.867 l -7.61658,-8.80618 v -3.23753 h 3.84886 v -3.02927 h -3.84886 v -3.71244 z m 1.526,13.09584 -0.001,0.001 v 0.02997 l -4.14755,4.93561 v 10.385934 l -15.553576,12.31036 0.644405,0.64337 19.070671,-14.85594 0.0124,0.01 19.032423,14.84509 0.64337,-0.64337 -15.5334,-12.31036 V 93.570836 l -4.142393,-4.93562 v -0.0279 l -0.001,-10e-4 -0.01189,0.01395 z m 0.10439,15.676564 v 0.003 l -17.011884,12.00237 v 13.90355 l -13.756266,4.19251 0.128674,3.79666 c 5.391525,-2.03341 9.905139,-3.39386 13.627592,-4.32118 v 1.11104 l -13.956771,4.25349 0.128674,3.79667 c 13.800977,-5.20504 21.971444,-6.06589 25.350911,-6.27455 6.974403,-0.50107 8.028993,-0.0122 10.536823,0.22789 16.84789,3.66999 17.07664,3.74929 25.76379,6.0203 l -0.0661,-3.9026 -13.72888,-3.84214 -5.2e-4,-0.24237 v -0.28422 c 5.85649,1.31139 8.14322,1.90126 13.99605,3.43132 l -0.0662,-3.90261 -13.9299,-3.89795 V 116.28734 L 99.008977,104.28497 v -0.003 l -0.0021,0.002 z m 0.0021,3.37758 13.409003,8.84287 v 17.54518 0.19275 l -0.39275,-0.11007 c -8.44198,-2.81612 -17.250863,-3.04879 -26.425249,-0.25476 v -17.3731 z m -5.46891,8.50387 v 0.57309 l 1.45159,0.40049 c 0.10057,0.0262 0.18562,0.068 0.25476,0.12558 0.06914,0.0576 0.10387,0.14172 0.10387,0.25166 v 8.54418 c 0,0.11518 -0.03774,0.20383 -0.11317,0.26665 -0.06914,0.0576 -0.15118,0.0994 -0.24546,0.12558 l -1.45159,0.38499 v 0.58911 h 10.625193 v -3.59668 h -1.1405 l -0.41496,2.3089 c -0.0126,0.0471 -0.0312,0.0914 -0.0563,0.13333 -0.0251,0.0419 -0.0568,0.0786 -0.0946,0.11007 -0.0314,0.0262 -0.0722,0.0468 -0.12247,0.0625 -0.044,0.0157 -0.0913,0.0238 -0.14159,0.0238 h -4.864823 v -8.95243 c 0,-0.10471 0.03473,-0.18884 0.10387,-0.25166 0.07542,-0.0628 0.1635,-0.10463 0.26406,-0.12558 l 1.4609,-0.40049 v -0.57309 z" /></g></svg>
